<?xml version="1.0" standalone="no"?>
<!DOCTYPE svg PUBLIC "-//W3C//DTD SVG 20010904//EN"
 "http://www.w3.org/TR/2001/REC-SVG-20010904/DTD/svg10.dtd">
<svg version="1.0" xmlns="http://www.w3.org/2000/svg"
 width="2464.000000pt" height="566.000000pt" viewBox="0 0 2464.000000 566.000000"
 preserveAspectRatio="xMidYMid meet">
<metadata>
Created by potrace 1.13, written by Peter Selinger 2001-2015
</metadata>
<g transform="translate(0.000000,566.000000) scale(0.100000,-0.100000)"
fill="#000000" stroke="none">
<path d="M7270 5650 c-8 -4 -41 -13 -72 -20 -75 -15 -95 -39 -70 -84 20 -36
20 119 -3 -2096 -9 -806 -18 -1501 -21 -1546 l-6 -81 -52 1 c-58 0 -95 -17
-122 -58 -8 -14 -33 -105 -54 -203 -85 -390 -129 -509 -239 -645 -94 -117
-152 -164 -228 -188 -122 -37 -212 -22 -283 49 -77 77 -113 182 -131 385 -17
181 -6 955 15 1121 38 298 60 400 107 503 32 72 36 113 15 163 -28 66 -111
120 -237 156 -51 14 -102 18 -254 18 -183 0 -192 -1 -239 -25 -70 -35 -74 -45
-43 -122 49 -122 49 -135 46 -1048 -2 -852 -2 -855 20 -953 68 -298 171 -455
379 -575 131 -76 233 -104 378 -103 340 1 604 192 784 566 45 92 100 241 114
307 4 16 10 28 14 28 4 0 13 -151 20 -335 23 -620 57 -745 203 -745 30 0 75
16 166 60 l125 60 81 -39 c45 -22 105 -47 132 -56 178 -60 580 -60 760 0 303
102 529 392 610 780 39 191 48 306 48 600 0 273 -9 427 -34 625 -63 485 -233
875 -442 1013 -30 20 -116 57 -198 85 -79 27 -177 61 -218 76 -160 58 -293 25
-389 -97 -78 -98 -139 -227 -192 -402 -12 -38 -33 -101 -48 -138 -38 -101 -46
-70 -33 146 6 100 15 288 21 417 42 937 53 1120 91 1450 33 294 45 355 104
524 63 179 63 201 2 252 -73 62 -302 140 -469 159 -32 4 -58 11 -58 16 0 11
-80 11 -100 -1z m1079 -2745 c100 -51 200 -257 246 -505 70 -385 83 -833 34
-1160 -60 -398 -212 -704 -393 -789 -114 -53 -237 -51 -344 6 -37 20 -101 53
-143 74 l-76 38 -12 76 c-23 160 -10 548 28 808 26 174 32 210 51 307 44 227
55 275 110 470 53 186 102 315 165 445 59 120 117 195 174 225 43 23 121 26
160 5z"/>
<path d="M23050 5595 c-146 -20 -240 -44 -240 -61 0 -8 11 -36 24 -63 28 -54
59 -168 76 -281 17 -108 29 -540 24 -870 -13 -969 -16 -1080 -30 -1080 -8 0
-76 23 -151 51 -175 65 -261 87 -385 98 -194 19 -301 -20 -439 -158 -189 -191
-326 -459 -448 -880 -85 -291 -128 -481 -160 -711 -29 -202 -76 -415 -126
-573 -100 -316 -301 -535 -555 -603 -101 -27 -305 -24 -389 5 -152 53 -289
183 -367 346 -63 132 -74 184 -74 337 0 76 3 138 8 138 4 0 45 -7 92 -15 107
-19 158 -19 257 0 344 65 660 474 775 1005 19 88 22 134 22 290 0 218 -11 277
-81 420 -40 82 -59 107 -142 190 -105 104 -190 157 -309 191 -191 55 -412 20
-585 -95 -80 -53 -224 -208 -301 -324 -73 -109 -167 -300 -215 -434 -99 -282
-147 -528 -181 -918 -14 -159 -62 -377 -125 -565 -82 -242 -234 -431 -424
-525 -110 -55 -279 -80 -416 -61 -238 33 -446 243 -521 529 -15 56 -20 312 -6
312 4 0 45 -7 92 -15 107 -19 158 -19 257 0 374 71 711 548 794 1124 15 107 6
342 -16 431 -9 36 -37 108 -62 160 -40 83 -58 107 -142 190 -105 104 -190 156
-309 191 -162 47 -345 29 -510 -52 -74 -37 -103 -59 -198 -153 -120 -121 -206
-240 -284 -396 -91 -183 -169 -409 -211 -613 -11 -56 -25 -106 -29 -111 -5 -5
-29 -2 -57 7 -66 20 -173 46 -241 58 -105 17 -356 39 -458 39 -68 0 -106 4
-119 13 -17 13 -18 31 -12 333 8 446 34 748 86 1009 57 284 147 533 243 673
95 138 234 239 387 283 36 10 74 28 85 38 19 20 19 21 -38 134 -113 226 -215
378 -271 404 -27 12 -42 11 -140 -7 -102 -20 -172 -22 -985 -35 -837 -13
-1159 -23 -1445 -46 -685 -54 -1037 -175 -1147 -393 -78 -154 -97 -360 -53
-560 86 -397 412 -953 701 -1196 136 -116 268 -140 353 -66 13 12 35 46 49 76
23 49 26 67 26 170 -1 118 -11 171 -52 261 -50 109 -202 274 -437 474 -308
262 -366 338 -373 487 -8 161 62 261 233 329 59 24 65 24 370 23 296 -1 421
-8 875 -49 320 -30 543 -56 825 -96 312 -45 376 -56 388 -68 5 -5 -7 -29 -30
-60 -124 -164 -215 -442 -273 -834 -36 -247 -56 -514 -69 -957 -5 -159 -13
-277 -20 -294 l-12 -29 -322 6 c-249 5 -346 3 -427 -8 -218 -29 -354 -98 -408
-207 -26 -54 -45 -147 -36 -182 14 -59 83 -69 149 -22 27 19 42 21 175 20 188
-1 608 -53 745 -92 56 -16 65 -91 40 -337 -44 -432 -162 -740 -363 -949 -60
-62 -112 -97 -187 -126 -52 -20 -77 -23 -185 -23 -160 1 -250 21 -370 79 -186
91 -312 256 -361 469 -46 205 -62 255 -109 351 -55 114 -98 159 -184 194 l-51
22 4 75 c6 128 -27 189 -108 200 -77 10 -106 -26 -140 -177 -99 -432 -142
-553 -256 -715 -100 -141 -256 -248 -420 -286 -27 -7 -106 -12 -175 -12 -104
0 -136 4 -189 22 -183 64 -337 236 -417 466 -21 58 -33 355 -16 355 6 0 46 -7
89 -15 204 -39 384 7 554 143 140 111 248 255 344 455 210 440 223 908 34
1192 -154 230 -410 354 -668 325 -187 -21 -306 -82 -456 -234 -199 -200 -339
-462 -444 -831 -16 -55 -31 -111 -34 -125 -2 -14 -11 -59 -20 -100 -15 -75
-25 -130 -49 -290 -18 -116 -17 -599 0 -700 33 -184 59 -292 97 -390 97 -254
273 -453 500 -567 89 -45 104 -51 170 -68 235 -62 501 -59 710 5 228 71 469
261 619 488 38 56 72 105 77 107 4 3 16 -9 25 -27 128 -250 402 -475 701 -579
166 -58 241 -70 458 -76 306 -8 582 16 822 73 318 75 523 253 628 546 52 146
114 506 161 930 3 31 11 64 18 73 9 13 53 17 252 25 218 9 343 22 474 51 25 5
61 12 80 15 l35 6 0 -269 c0 -262 5 -326 40 -498 76 -373 261 -639 556 -798
283 -153 738 -158 1033 -10 229 114 433 321 563 574 19 38 39 69 43 69 4 0 24
-40 44 -89 106 -255 268 -435 502 -555 225 -116 597 -140 869 -56 270 84 544
325 690 608 15 29 32 51 38 49 5 -1 27 -42 47 -90 69 -160 152 -276 255 -360
69 -55 283 -164 400 -203 97 -32 247 -43 333 -24 209 45 372 236 466 545 49
161 76 261 76 284 0 11 4 23 10 26 11 6 21 -14 70 -141 77 -200 197 -356 321
-418 104 -52 199 -71 364 -71 165 0 241 19 344 85 271 175 454 552 535 1100
39 267 31 427 -26 483 -26 26 -34 29 -76 24 -35 -4 -53 -12 -73 -35 -31 -35
-40 -72 -70 -286 -56 -410 -139 -688 -248 -823 -99 -125 -285 -167 -380 -87
-44 37 -98 154 -121 264 -46 218 -52 393 -47 1425 3 528 10 1052 16 1165 53
964 68 1199 106 1590 26 267 25 302 -12 342 -27 30 -61 44 -134 57 -87 15
-359 12 -479 -4z m-315 -2695 c45 -21 105 -60 133 -85 l52 -47 0 -139 c0 -129
-4 -189 -31 -444 -12 -119 -46 -359 -59 -430 -6 -27 -22 -108 -36 -180 -14
-71 -34 -168 -45 -215 -11 -47 -29 -123 -40 -169 -51 -213 -128 -439 -200
-584 -100 -202 -178 -277 -289 -277 -80 0 -130 35 -183 130 -96 172 -127 467
-92 900 38 478 110 832 232 1133 88 219 181 356 281 414 91 54 156 52 277 -7z
m-10225 -19 c14 -10 36 -38 50 -62 24 -42 25 -51 24 -199 -1 -125 -6 -179 -27
-280 -86 -411 -254 -681 -459 -736 -64 -17 -148 -18 -181 -3 -14 6 -30 22 -36
36 -13 29 -15 217 -2 276 5 23 15 74 21 112 66 383 249 771 401 851 70 37 161
39 209 5z m5840 0 c14 -10 36 -38 50 -62 75 -133 2 -614 -133 -884 -67 -134
-172 -261 -251 -302 -52 -27 -121 -43 -187 -43 -58 0 -69 3 -93 26 -25 26 -26
31 -26 140 0 62 4 135 9 161 5 26 15 77 21 113 56 297 177 604 304 763 78 98
228 142 306 88z m2160 0 c49 -35 74 -97 78 -198 12 -271 -87 -655 -221 -853
-115 -171 -223 -240 -377 -240 -59 0 -70 3 -94 26 -25 26 -26 31 -26 141 0 63
4 133 9 156 5 23 15 74 21 112 49 285 177 608 304 768 78 98 228 142 306 88z"/>
<path d="M10315 5594 c-88 -8 -182 -28 -222 -46 -128 -60 -205 -232 -292 -650
-94 -456 -152 -933 -191 -1573 -6 -99 -15 -249 -20 -334 -20 -313 -10 -1022
21 -1476 46 -679 151 -1089 331 -1285 61 -67 167 -127 268 -151 154 -38 374
-48 491 -24 156 33 336 128 418 221 85 97 94 236 18 300 -33 28 -110 33 -155
10 -15 -8 -71 -62 -126 -120 -106 -115 -127 -130 -206 -147 -134 -29 -233 53
-310 257 -37 98 -84 339 -96 491 l-7 93 41 62 c104 164 198 347 270 529 66
167 156 450 196 622 9 37 23 95 31 130 46 198 102 556 129 827 31 312 40 534
40 990 1 385 -2 486 -16 590 -53 384 -181 605 -384 664 -54 16 -166 26 -229
20z m145 -707 c47 -37 84 -132 112 -287 17 -98 17 -829 0 -1060 -44 -581 -88
-861 -193 -1227 -5 -18 -13 -48 -18 -65 -43 -157 -159 -461 -176 -459 -21 2
-26 193 -20 771 11 1184 57 1868 146 2185 33 117 100 181 149 142z"/>
<path d="M3290 5149 c-619 -39 -1317 -178 -1855 -369 -49 -17 -101 -35 -115
-40 -69 -22 -159 -61 -315 -136 -150 -73 -216 -110 -342 -195 -331 -221 -547
-480 -629 -756 -36 -119 -44 -320 -20 -443 41 -201 138 -319 263 -320 49 0
120 28 150 61 35 38 70 129 78 201 6 56 3 80 -18 150 -47 153 -50 172 -51 303
-1 118 1 134 23 175 60 115 189 239 396 379 291 199 711 392 998 461 98 24
137 25 137 6 0 -7 -9 -34 -20 -60 -12 -25 -25 -81 -30 -124 -5 -46 -5 -497 1
-1130 11 -1065 2 -1944 -21 -2292 -10 -138 -29 -294 -46 -372 -5 -24 1 -32 62
-77 207 -152 664 -389 870 -450 66 -19 95 -21 387 -21 329 0 331 0 547 52 408
97 763 280 960 494 197 214 185 463 -42 924 -70 143 -89 173 -144 227 -143
140 -457 312 -711 388 -34 10 -60 22 -58 26 3 4 56 32 117 63 221 109 413 252
634 471 332 329 578 737 640 1062 19 101 18 312 -1 388 -23 86 -59 141 -235
352 -213 255 -312 341 -519 443 -291 145 -604 190 -1091 159z m-60 -409 c392
-9 552 -22 740 -61 386 -79 548 -222 567 -499 18 -273 -94 -568 -340 -894 -88
-118 -354 -380 -479 -472 -251 -187 -530 -311 -736 -329 -120 -11 -287 3 -315
25 l-22 18 -5 959 c-6 944 -6 959 -27 1035 -24 84 -40 116 -87 165 -16 18 -26
36 -22 40 20 20 238 24 726 13z m79 -2714 c257 -69 734 -436 837 -644 54 -109
40 -252 -37 -373 -37 -58 -167 -184 -244 -236 -152 -102 -369 -187 -540 -212
-190 -28 -268 -31 -339 -16 -154 33 -260 149 -318 350 -22 76 -23 95 -22 385
1 301 17 605 35 666 8 26 17 34 52 42 64 17 110 23 252 37 178 17 261 17 324
1z"/>
<path d="M5545 4459 c-94 -27 -290 -122 -304 -147 -6 -12 -11 -27 -11 -35 0
-16 129 -197 195 -274 59 -67 143 -132 230 -176 139 -69 231 -85 378 -63 119
18 183 37 238 72 76 48 78 93 10 192 -28 40 -67 105 -88 145 -49 94 -148 194
-228 231 -160 76 -288 92 -420 55z"/>
</g>
</svg>
